<svg class="diagram-root" style="background: #f5f6f6" xmlns="http://www.w3.org/2000/svg" xmlns:xlink="http://www.w3.org/1999/xlink"><style>.diagram-root { font-family: "Helvetica Neue", sans-serif; font-size: 12px; } .t { overflow: visible; } .t-bg { y: 40; fill: #fff;   } .th { fill: #005aa0;   } .tht { fill: #fff; font-size: 14px;  } .tf { fill: #323c46; overflow: visible; } .tf.pk { fill: #005aa0; font-weight: bold; } .tf.fk { font-weight: bold; } .ty { fill: #adb1b5; font-weight: normal; text-anchor: end; } .r { fill: transparent; stroke: #c3c3c3; stroke-width: 1; } .l { stroke: 1; } .i { fill: #c2c7ce; stroke: #c2c7ce; } .i.ix { fill: #afb3b6; stroke: #000; } .fa { fill: transparent; overflow: visible; } .fa .bg.hover { fill: #f7f7f7; } .c { cy: 12; r: 4; stroke: #d2d2dc; fill: #d2d2dc; } .hr { fill: transparent; stroke: #323c46; stroke-opacity: 0.035; stroke-width: 13; } .dc { stroke: #fa5a3c; fill: #fa5a3c; } .x { stroke: white; stroke-width: 1; } .hl .th { fill: #1b9bff; } .hl .tht {  } .fhl .bg { fill: #e7f4ff; } .fhls .bg {  } .r.hl { stroke: #1b9bff; } .dim { opacity: 0.25; }</style><g class="drawing-wrapper" transform="translate(191.07727272727274, 30.007272727272706) scale(1,1)"><g class="rs"><path d="M 145.03 304.5 m -1, 0 a 1,1 0 1,0 2,0 a 1,1 0 1,0 -2,0 M 145.03 304.5 m -0.5, 0 a 0.5,0.5 0 1,0 1,0 a 0.5,0.5 0 1,0 -1,0  M145.03 304.5 L145.03 304.5 133.03 304.5 M 145.03 310.5 m -1, 0 a 1,1 0 1,0 2,0 a 1,1 0 1,0 -2,0 M 145.03 310.5 m -0.5, 0 a 0.5,0.5 0 1,0 1,0 a 0.5,0.5 0 1,0 -1,0  M145.03 310.5 L145.03 310.5 138.03 304.5 145.03 298.5 M 145.03 298.5 m -1, 0 a 1,1 0 1,0 2,0 a 1,1 0 1,0 -2,0 M 145.03 298.5 m -0.5, 0 a 0.5,0.5 0 1,0 1,0 a 0.5,0.5 0 1,0 -1,0  M133.03 304.5 Q 103.02 304.5, 73.01 180.75 T 12.99 56.99 M 0.99 56.99 m -1, 0 a 1,1 0 1,0 2,0 a 1,1 0 1,0 -2,0 M 0.99 56.99 m -0.5, 0 a 0.5,0.5 0 1,0 1,0 a 0.5,0.5 0 1,0 -1,0  M0.99 56.99 L0.99 56.99 12.99 56.99 M6.99 62.99 L6.99 62.99 6.99 50.99" id="h254055240" class="r"></path><path d="M 145.03 404.5 m -1, 0 a 1,1 0 1,0 2,0 a 1,1 0 1,0 -2,0 M 145.03 404.5 m -0.5, 0 a 0.5,0.5 0 1,0 1,0 a 0.5,0.5 0 1,0 -1,0  M145.03 404.5 L145.03 404.5 133.03 404.5 M 145.03 410.5 m -1, 0 a 1,1 0 1,0 2,0 a 1,1 0 1,0 -2,0 M 145.03 410.5 m -0.5, 0 a 0.5,0.5 0 1,0 1,0 a 0.5,0.5 0 1,0 -1,0  M145.03 410.5 L145.03 410.5 138.03 404.5 145.03 398.5 M 145.03 398.5 m -1, 0 a 1,1 0 1,0 2,0 a 1,1 0 1,0 -2,0 M 145.03 398.5 m -0.5, 0 a 0.5,0.5 0 1,0 1,0 a 0.5,0.5 0 1,0 -1,0  M133.03 404.5 Q 86.13 404.5, 39.22 327.57 T -54.599999999999994 250.63545454545448 M -66.6 250.63545454545448 m -1, 0 a 1,1 0 1,0 2,0 a 1,1 0 1,0 -2,0 M -66.6 250.63545454545448 m -0.5, 0 a 0.5,0.5 0 1,0 1,0 a 0.5,0.5 0 1,0 -1,0  M-66.6 250.63545454545448 L-66.6 250.63545454545448 -54.599999999999994 250.63545454545448 M-60.599999999999994 256.6354545454545 L-60.599999999999994 256.6354545454545 -60.599999999999994 244.63545454545448" id="h4245835805" class="r"></path><path d="M 145.03 429.5 m -1, 0 a 1,1 0 1,0 2,0 a 1,1 0 1,0 -2,0 M 145.03 429.5 m -0.5, 0 a 0.5,0.5 0 1,0 1,0 a 0.5,0.5 0 1,0 -1,0  M145.03 429.5 L145.03 429.5 133.03 429.5 M 145.03 435.5 m -1, 0 a 1,1 0 1,0 2,0 a 1,1 0 1,0 -2,0 M 145.03 435.5 m -0.5, 0 a 0.5,0.5 0 1,0 1,0 a 0.5,0.5 0 1,0 -1,0  M145.03 435.5 L145.03 435.5 138.03 429.5 145.03 423.5 M 145.03 423.5 m -1, 0 a 1,1 0 1,0 2,0 a 1,1 0 1,0 -2,0 M 145.03 423.5 m -0.5, 0 a 0.5,0.5 0 1,0 1,0 a 0.5,0.5 0 1,0 -1,0  M133.03 429.5 Q 98.36 429.5, 63.68 406.49 T -5.670000000000002 383.4790909090909 M -17.67 383.4790909090909 m -1, 0 a 1,1 0 1,0 2,0 a 1,1 0 1,0 -2,0 M -17.67 383.4790909090909 m -0.5, 0 a 0.5,0.5 0 1,0 1,0 a 0.5,0.5 0 1,0 -1,0  M-17.67 383.4790909090909 L-17.67 383.4790909090909 -5.670000000000002 383.4790909090909 M-11.670000000000002 389.4790909090909 L-11.670000000000002 389.4790909090909 -11.670000000000002 377.4790909090909" id="h2786308908" class="r"></path></g><g class="hrs"></g><g class="ts"><svg width="170.07" height="150" x="-169.08" y="-0.01" id="h1537667952" class="t"><rect height="40" width="170.07" class="th"></rect><text x="13" y="25" class="tht">User</text><rect height="110" width="170.07" class="t-bg"></rect><text x="13" y="61" class="tf pk">CustomerID<tspan x="157.07" class="ty">int</tspan></text><path d="M7,14A2,2 0 0,1 5,12A2,2 0 0,1 7,10A2,2 0 0,1 9,12A2,2 0 0,1 7,14M12.65,10C11.83,7.67 9.61,6 7, 6A6, 6 0 0, 0 1, 12A6, 6 0 0, 0 7, 18C9.61, 18 11.83, 16.33 12.65, 14H17V18H21V14H23V10H12.65Z" class="i pk" transform="translate(124.396171875, 48) scale(0.65)"></path><text x="13" y="86" class="tf">Name<tspan x="157.07" class="ty">string</tspan></text><path d="M814.545 581.818v-23.273H535.273v-93.09h-46.546v93.09H209.455v139.637H256V605.09h232.727v93.09h46.546v-93.09H768v93.09h46.545V581.819zM674.91 465.455H349.091V139.636h325.818v325.819zM325.82 884.364H139.635V698.182h186.182v186.182z m279.272 0H418.909V698.182h186.182v186.182z m279.273 0H698.182V698.182h186.182v186.182zM395.636 418.909h232.728V186.182H395.636v232.727zM186.182 837.82h93.09v-93.092h-93.09v93.091z m279.273 0h93.09v-93.092h-93.09v93.091z m279.272 0h93.091v-93.092h-93.09v93.091z" class="i ix" transform="translate(112.72625, 75) scale(0.014)"></path><text x="13" y="111" class="tf">Password<tspan x="157.07" class="ty">string</tspan></text><text x="13" y="136" class="tf fk">Preferred_Region<tspan x="157.07" class="ty">string</tspan></text></svg><svg width="120.71" height="225" x="145.03" y="222.5" id="h1611266215" class="t"><rect height="40" width="120.71" class="th"></rect><text x="13" y="25" class="tht">Posts</text><rect height="185" width="120.71" class="t-bg"></rect><text x="13" y="61" class="tf pk">PostID<tspan x="107.71" class="ty">int</tspan></text><path d="M7,14A2,2 0 0,1 5,12A2,2 0 0,1 7,10A2,2 0 0,1 9,12A2,2 0 0,1 7,14M12.65,10C11.83,7.67 9.61,6 7, 6A6, 6 0 0, 0 1, 12A6, 6 0 0, 0 7, 18C9.61, 18 11.83, 16.33 12.65, 14H17V18H21V14H23V10H12.65Z" class="i pk" transform="translate(75.036171875, 48) scale(0.65)"></path><text x="13" y="86" class="tf fk">UserID<tspan x="107.71" class="ty">int</tspan></text><text x="13" y="111" class="tf">Title<tspan x="107.71" class="ty">string</tspan></text><text x="13" y="136" class="tf">Text<tspan x="107.71" class="ty">string</tspan></text><text x="13" y="161" class="tf">Location<tspan x="107.71" class="ty">string</tspan></text><text x="13" y="186" class="tf fk">RegionID<tspan x="107.71" class="ty">int</tspan></text><text x="13" y="211" class="tf fk">CategoryID<tspan x="107.71" class="ty">int</tspan></text></svg><svg width="90.67" height="75" x="-157.27454545454543" y="193.63545454545448" id="h3849288478" class="t"><rect height="40" width="90.67" class="th"></rect><text x="13" y="25" class="tht">Region</text><rect height="35" width="90.67" class="t-bg"></rect><text x="13" y="61" class="tf pk">ID<tspan x="77.67" class="ty">int</tspan></text><path d="M7,14A2,2 0 0,1 5,12A2,2 0 0,1 7,10A2,2 0 0,1 9,12A2,2 0 0,1 7,14M12.65,10C11.83,7.67 9.61,6 7, 6A6, 6 0 0, 0 1, 12A6, 6 0 0, 0 7, 18C9.61, 18 11.83, 16.33 12.65, 14H17V18H21V14H23V10H12.65Z" class="i pk" transform="translate(44.996171875, 48) scale(0.65)"></path></svg><svg width="139.37" height="75" x="-157.04090909090905" y="326.4790909090909" id="h1903237708" class="t"><rect height="40" width="139.37" class="th"></rect><text x="13" y="25" class="tht">Category</text><rect height="35" width="139.37" class="t-bg"></rect><text x="13" y="61" class="tf pk">CategoryID<tspan x="126.37" class="ty">int</tspan></text><path d="M7,14A2,2 0 0,1 5,12A2,2 0 0,1 7,10A2,2 0 0,1 9,12A2,2 0 0,1 7,14M12.65,10C11.83,7.67 9.61,6 7, 6A6, 6 0 0, 0 1, 12A6, 6 0 0, 0 7, 18C9.61, 18 11.83, 16.33 12.65, 14H17V18H21V14H23V10H12.65Z" class="i pk" transform="translate(93.696171875, 48) scale(0.65)"></path></svg></g></g><text class="qdbd-link" x="10" y="20">www.quickdatabasediagrams.com</text></svg>