<svg class="diagram-root" style="background: #f5f6f6" xmlns="http://www.w3.org/2000/svg" xmlns:xlink="http://www.w3.org/1999/xlink"><style>.diagram-root { font-family: "Helvetica Neue", sans-serif; font-size: 12px; } .t { overflow: visible; } .t-bg { y: 40; fill: #fff;   } .th { fill: #005aa0;   } .tht { fill: #fff; font-size: 14px;  } .tf { fill: #323c46; overflow: visible; } .tf.pk { fill: #005aa0; font-weight: bold; } .tf.fk { font-weight: bold; } .ty { fill: #adb1b5; font-weight: normal; text-anchor: end; } .r { fill: transparent; stroke: #c3c3c3; stroke-width: 1; } .l { stroke: 1; } .i { fill: #c2c7ce; stroke: #c2c7ce; } .i.ix { fill: #afb3b6; stroke: #000; } .fa { fill: transparent; overflow: visible; } .fa .bg.hover { fill: #f7f7f7; } .c { cy: 12; r: 4; stroke: #d2d2dc; fill: #d2d2dc; } .hr { fill: transparent; stroke: #323c46; stroke-opacity: 0.035; stroke-width: 13; } .dc { stroke: #fa5a3c; fill: #fa5a3c; } .x { stroke: white; stroke-width: 1; } .hl .th { fill: #1b9bff; } .hl .tht {  } .fhl .bg { fill: #e7f4ff; } .fhls .bg {  } .r.hl { stroke: #1b9bff; } .dim { opacity: 0.25; }</style><g class="drawing-wrapper" transform="translate(195.63636363636363, 49.999999999999986) scale(1,1)"><g class="rs"><path d="M 145.37 73.06 m -1, 0 a 1,1 0 1,0 2,0 a 1,1 0 1,0 -2,0 M 145.37 73.06 m -0.5, 0 a 0.5,0.5 0 1,0 1,0 a 0.5,0.5 0 1,0 -1,0  M145.37 73.06 L145.37 73.06 133.37 73.06 M 145.37 79.06 m -1, 0 a 1,1 0 1,0 2,0 a 1,1 0 1,0 -2,0 M 145.37 79.06 m -0.5, 0 a 0.5,0.5 0 1,0 1,0 a 0.5,0.5 0 1,0 -1,0  M145.37 79.06 L145.37 79.06 138.37 73.06 145.37 67.06 M 145.37 67.06 m -1, 0 a 1,1 0 1,0 2,0 a 1,1 0 1,0 -2,0 M 145.37 67.06 m -0.5, 0 a 0.5,0.5 0 1,0 1,0 a 0.5,0.5 0 1,0 -1,0  M133.37 73.06 Q 91.34 73.06, 49.31 55.03 T -34.75 37 M -46.75 37 m -1, 0 a 1,1 0 1,0 2,0 a 1,1 0 1,0 -2,0 M -46.75 37 m -0.5, 0 a 0.5,0.5 0 1,0 1,0 a 0.5,0.5 0 1,0 -1,0  M-46.75 37 L-46.75 37 -34.75 37 M-40.75 43 L-40.75 43 -40.75 31" id="h2564137277" class="r"></path><path d="M 145.37 98.06 m -1, 0 a 1,1 0 1,0 2,0 a 1,1 0 1,0 -2,0 M 145.37 98.06 m -0.5, 0 a 0.5,0.5 0 1,0 1,0 a 0.5,0.5 0 1,0 -1,0  M145.37 98.06 L145.37 98.06 133.37 98.06 M 145.37 104.06 m -1, 0 a 1,1 0 1,0 2,0 a 1,1 0 1,0 -2,0 M 145.37 104.06 m -0.5, 0 a 0.5,0.5 0 1,0 1,0 a 0.5,0.5 0 1,0 -1,0  M145.37 104.06 L145.37 104.06 138.37 98.06 145.37 92.06 M 145.37 92.06 m -1, 0 a 1,1 0 1,0 2,0 a 1,1 0 1,0 -2,0 M 145.37 92.06 m -0.5, 0 a 0.5,0.5 0 1,0 1,0 a 0.5,0.5 0 1,0 -1,0  M133.37 98.06 Q 90.44 98.06, 47.5 157.99 T -38.38 217.91 M -50.38 217.91 m -1, 0 a 1,1 0 1,0 2,0 a 1,1 0 1,0 -2,0 M -50.38 217.91 m -0.5, 0 a 0.5,0.5 0 1,0 1,0 a 0.5,0.5 0 1,0 -1,0  M-50.38 217.91 L-50.38 217.91 -38.38 217.91 M-44.38 223.91 L-44.38 223.91 -44.38 211.91" id="h1614727803" class="r"></path><path d="M 287.36 323.65999999999997 m -1, 0 a 1,1 0 1,0 2,0 a 1,1 0 1,0 -2,0 M 287.36 323.65999999999997 m -0.5, 0 a 0.5,0.5 0 1,0 1,0 a 0.5,0.5 0 1,0 -1,0  M287.36 323.65999999999997 L287.36 323.65999999999997 299.36 323.65999999999997 M 287.36 329.65999999999997 m -1, 0 a 1,1 0 1,0 2,0 a 1,1 0 1,0 -2,0 M 287.36 329.65999999999997 m -0.5, 0 a 0.5,0.5 0 1,0 1,0 a 0.5,0.5 0 1,0 -1,0  M287.36 329.65999999999997 L287.36 329.65999999999997 294.36 323.65999999999997 287.36 317.65999999999997 M 287.36 317.65999999999997 m -1, 0 a 1,1 0 1,0 2,0 a 1,1 0 1,0 -2,0 M 287.36 317.65999999999997 m -0.5, 0 a 0.5,0.5 0 1,0 1,0 a 0.5,0.5 0 1,0 -1,0  M299.36 323.65999999999997 C 349.36 323.65999999999997, 361.336 48.06, 279.4 48.06 M 267.4 48.06 m -1, 0 a 1,1 0 1,0 2,0 a 1,1 0 1,0 -2,0 M 267.4 48.06 m -0.5, 0 a 0.5,0.5 0 1,0 1,0 a 0.5,0.5 0 1,0 -1,0  M267.4 48.06 L267.4 48.06 279.4 48.06 M273.4 54.06 L273.4 54.06 273.4 42.06" id="h2831787268" class="r"></path><path d="M 173.33 348.65999999999997 m -1, 0 a 1,1 0 1,0 2,0 a 1,1 0 1,0 -2,0 M 173.33 348.65999999999997 m -0.5, 0 a 0.5,0.5 0 1,0 1,0 a 0.5,0.5 0 1,0 -1,0  M173.33 348.65999999999997 L173.33 348.65999999999997 161.33 348.65999999999997 M 173.33 354.65999999999997 m -1, 0 a 1,1 0 1,0 2,0 a 1,1 0 1,0 -2,0 M 173.33 354.65999999999997 m -0.5, 0 a 0.5,0.5 0 1,0 1,0 a 0.5,0.5 0 1,0 -1,0  M173.33 354.65999999999997 L173.33 354.65999999999997 166.33 348.65999999999997 173.33 342.65999999999997 M 173.33 342.65999999999997 m -1, 0 a 1,1 0 1,0 2,0 a 1,1 0 1,0 -2,0 M 173.33 342.65999999999997 m -0.5, 0 a 0.5,0.5 0 1,0 1,0 a 0.5,0.5 0 1,0 -1,0  M161.33 348.65999999999997 Q 119.44 348.65999999999997, 77.54 350.1 T -6.25 351.54 M -18.25 351.54 m -1, 0 a 1,1 0 1,0 2,0 a 1,1 0 1,0 -2,0 M -18.25 351.54 m -0.5, 0 a 0.5,0.5 0 1,0 1,0 a 0.5,0.5 0 1,0 -1,0  M-18.25 351.54 L-18.25 351.54 -6.25 351.54 M-12.25 357.54 L-12.25 357.54 -12.25 345.54" id="h3778128546" class="r"></path></g><g class="hrs"></g><g class="ts"><svg width="122.35" height="100" x="-172.73" y="160.91" id="h620315142" class="t"><rect height="40" width="122.35" class="th"></rect><text x="13" y="25" class="tht">Doctor</text><rect height="60" width="122.35" class="t-bg"></rect><text x="13" y="61" class="tf pk">ID<tspan x="109.35" class="ty">int</tspan></text><path d="M7,14A2,2 0 0,1 5,12A2,2 0 0,1 7,10A2,2 0 0,1 9,12A2,2 0 0,1 7,14M12.65,10C11.83,7.67 9.61,6 7, 6A6, 6 0 0, 0 1, 12A6, 6 0 0, 0 7, 18C9.61, 18 11.83, 16.33 12.65, 14H17V18H21V14H23V10H12.65Z" class="i pk" transform="translate(76.676171875, 48) scale(0.65)"></path><text x="13" y="86" class="tf">Name<tspan x="109.35" class="ty">string</tspan></text><path d="M814.545 581.818v-23.273H535.273v-93.09h-46.546v93.09H209.455v139.637H256V605.09h232.727v93.09h46.546v-93.09H768v93.09h46.545V581.819zM674.91 465.455H349.091V139.636h325.818v325.819zM325.82 884.364H139.635V698.182h186.182v186.182z m279.272 0H418.909V698.182h186.182v186.182z m279.273 0H698.182V698.182h186.182v186.182zM395.636 418.909h232.728V186.182H395.636v232.727zM186.182 837.82h93.09v-93.092h-93.09v93.091z m279.273 0h93.09v-93.092h-93.09v93.091z m279.272 0h93.091v-93.092h-93.09v93.091z" class="i ix" transform="translate(65.00625, 75) scale(0.014)"></path></svg><svg width="122.35" height="150" x="-169.1" y="-20" id="h959375892" class="t"><rect height="40" width="122.35" class="th"></rect><text x="13" y="25" class="tht">Patient</text><rect height="110" width="122.35" class="t-bg"></rect><text x="13" y="61" class="tf pk">ID<tspan x="109.35" class="ty">int</tspan></text><path d="M7,14A2,2 0 0,1 5,12A2,2 0 0,1 7,10A2,2 0 0,1 9,12A2,2 0 0,1 7,14M12.65,10C11.83,7.67 9.61,6 7, 6A6, 6 0 0, 0 1, 12A6, 6 0 0, 0 7, 18C9.61, 18 11.83, 16.33 12.65, 14H17V18H21V14H23V10H12.65Z" class="i pk" transform="translate(76.676171875, 48) scale(0.65)"></path><text x="13" y="86" class="tf">Name<tspan x="109.35" class="ty">string</tspan></text><path d="M814.545 581.818v-23.273H535.273v-93.09h-46.546v93.09H209.455v139.637H256V605.09h232.727v93.09h46.546v-93.09H768v93.09h46.545V581.819zM674.91 465.455H349.091V139.636h325.818v325.819zM325.82 884.364H139.635V698.182h186.182v186.182z m279.272 0H418.909V698.182h186.182v186.182z m279.273 0H698.182V698.182h186.182v186.182zM395.636 418.909h232.728V186.182H395.636v232.727zM186.182 837.82h93.09v-93.092h-93.09v93.091z m279.273 0h93.09v-93.092h-93.09v93.091z m279.272 0h93.091v-93.092h-93.09v93.091z" class="i ix" transform="translate(65.00625, 75) scale(0.014)"></path><text x="13" y="111" class="tf">Age<tspan x="109.35" class="ty">string</tspan></text><text x="13" y="136" class="tf">Gender<tspan x="109.35" class="ty">string</tspan></text></svg><svg width="122.03" height="150" x="145.37" y="-8.94" id="h3280351983" class="t"><rect height="40" width="122.03" class="th"></rect><text x="13" y="25" class="tht">Visits</text><rect height="110" width="122.03" class="t-bg"></rect><text x="13" y="61" class="tf pk">Appt_ID<tspan x="109.03" class="ty">int</tspan></text><path d="M7,14A2,2 0 0,1 5,12A2,2 0 0,1 7,10A2,2 0 0,1 9,12A2,2 0 0,1 7,14M12.65,10C11.83,7.67 9.61,6 7, 6A6, 6 0 0, 0 1, 12A6, 6 0 0, 0 7, 18C9.61, 18 11.83, 16.33 12.65, 14H17V18H21V14H23V10H12.65Z" class="i pk" transform="translate(76.356171875, 48) scale(0.65)"></path><text x="13" y="86" class="tf fk">PatientID<tspan x="109.03" class="ty">int</tspan></text><text x="13" y="111" class="tf fk">DoctorID<tspan x="109.03" class="ty">int</tspan></text><text x="13" y="136" class="tf">Date<tspan x="109.03" class="ty">int</tspan></text></svg><svg width="114.03" height="125" x="173.33" y="241.66" id="h3047656030" class="t"><rect height="40" width="114.03" class="th"></rect><text x="13" y="25" class="tht">Diagnoses</text><rect height="85" width="114.03" class="t-bg"></rect><text x="13" y="61" class="tf pk">ID<tspan x="101.03" class="ty">int</tspan></text><path d="M7,14A2,2 0 0,1 5,12A2,2 0 0,1 7,10A2,2 0 0,1 9,12A2,2 0 0,1 7,14M12.65,10C11.83,7.67 9.61,6 7, 6A6, 6 0 0, 0 1, 12A6, 6 0 0, 0 7, 18C9.61, 18 11.83, 16.33 12.65, 14H17V18H21V14H23V10H12.65Z" class="i pk" transform="translate(68.356171875, 48) scale(0.65)"></path><text x="13" y="86" class="tf fk">VisitID<tspan x="101.03" class="ty">int</tspan></text><text x="13" y="111" class="tf fk">DiseaseID<tspan x="101.03" class="ty">int</tspan></text></svg><svg width="155.39" height="125" x="-173.64" y="294.54" id="h1794948770" class="t"><rect height="40" width="155.39" class="th"></rect><text x="13" y="25" class="tht">Diseases</text><rect height="85" width="155.39" class="t-bg"></rect><text x="13" y="61" class="tf pk">ID<tspan x="142.39" class="ty">int</tspan></text><path d="M7,14A2,2 0 0,1 5,12A2,2 0 0,1 7,10A2,2 0 0,1 9,12A2,2 0 0,1 7,14M12.65,10C11.83,7.67 9.61,6 7, 6A6, 6 0 0, 0 1, 12A6, 6 0 0, 0 7, 18C9.61, 18 11.83, 16.33 12.65, 14H17V18H21V14H23V10H12.65Z" class="i pk" transform="translate(109.71617187499999, 48) scale(0.65)"></path><text x="13" y="86" class="tf">Disease_category<tspan x="142.39" class="ty">int</tspan></text><text x="13" y="111" class="tf">Disease_name<tspan x="142.39" class="ty">string</tspan></text></svg></g></g><text class="qdbd-link" x="10" y="20">www.quickdatabasediagrams.com</text></svg>