<svg class="diagram-root" style="background: #f5f6f6" xmlns="http://www.w3.org/2000/svg" xmlns:xlink="http://www.w3.org/1999/xlink"><style>.diagram-root { font-family: "Helvetica Neue", sans-serif; font-size: 12px; } .t { overflow: visible; } .t-bg { y: 40; fill: #fff;   } .th { fill: #005aa0;   } .tht { fill: #fff; font-size: 14px;  } .tf { fill: #323c46; overflow: visible; } .tf.pk { fill: #005aa0; font-weight: bold; } .tf.fk { font-weight: bold; } .ty { fill: #adb1b5; font-weight: normal; text-anchor: end; } .r { fill: transparent; stroke: #c3c3c3; stroke-width: 1; } .l { stroke: 1; } .i { fill: #c2c7ce; stroke: #c2c7ce; } .i.ix { fill: #afb3b6; stroke: #000; } .fa { fill: transparent; overflow: visible; } .fa .bg.hover { fill: #f7f7f7; } .c { cy: 12; r: 4; stroke: #d2d2dc; fill: #d2d2dc; } .hr { fill: transparent; stroke: #323c46; stroke-opacity: 0.035; stroke-width: 13; } .dc { stroke: #fa5a3c; fill: #fa5a3c; } .x { stroke: white; stroke-width: 1; } .hl .th { fill: #1b9bff; } .hl .tht {  } .fhl .bg { fill: #e7f4ff; } .fhls .bg {  } .r.hl { stroke: #1b9bff; } .dim { opacity: 0.25; }</style><g class="drawing-wrapper" transform="translate(255.09, 46.91) scale(1,1)"><g class="rs"><path d="M -106.56 370.90999999999997 m -1, 0 a 1,1 0 1,0 2,0 a 1,1 0 1,0 -2,0 M -106.56 370.90999999999997 m -0.5, 0 a 0.5,0.5 0 1,0 1,0 a 0.5,0.5 0 1,0 -1,0  M-106.56 370.90999999999997 L-106.56 370.90999999999997 -94.56 370.90999999999997 M -106.56 376.90999999999997 m -1, 0 a 1,1 0 1,0 2,0 a 1,1 0 1,0 -2,0 M -106.56 376.90999999999997 m -0.5, 0 a 0.5,0.5 0 1,0 1,0 a 0.5,0.5 0 1,0 -1,0  M-106.56 376.90999999999997 L-106.56 376.90999999999997 -99.56 370.90999999999997 -106.56 364.90999999999997 M -106.56 364.90999999999997 m -1, 0 a 1,1 0 1,0 2,0 a 1,1 0 1,0 -2,0 M -106.56 364.90999999999997 m -0.5, 0 a 0.5,0.5 0 1,0 1,0 a 0.5,0.5 0 1,0 -1,0  M-94.56 370.90999999999997 Q -30.92 370.90999999999997, 32.72 434.46 T 160 498 M 172 498 m -1, 0 a 1,1 0 1,0 2,0 a 1,1 0 1,0 -2,0 M 172 498 m -0.5, 0 a 0.5,0.5 0 1,0 1,0 a 0.5,0.5 0 1,0 -1,0  M172 498 L172 498 160 498 M166 504 L166 504 166 492" id="h1495904290" class="r"></path><path d="M -106.56 420.90999999999997 m -1, 0 a 1,1 0 1,0 2,0 a 1,1 0 1,0 -2,0 M -106.56 420.90999999999997 m -0.5, 0 a 0.5,0.5 0 1,0 1,0 a 0.5,0.5 0 1,0 -1,0  M-106.56 420.90999999999997 L-106.56 420.90999999999997 -94.56 420.90999999999997 M -106.56 426.90999999999997 m -1, 0 a 1,1 0 1,0 2,0 a 1,1 0 1,0 -2,0 M -106.56 426.90999999999997 m -0.5, 0 a 0.5,0.5 0 1,0 1,0 a 0.5,0.5 0 1,0 -1,0  M-106.56 426.90999999999997 L-106.56 426.90999999999997 -99.56 420.90999999999997 -106.56 414.90999999999997 M -106.56 414.90999999999997 m -1, 0 a 1,1 0 1,0 2,0 a 1,1 0 1,0 -2,0 M -106.56 414.90999999999997 m -0.5, 0 a 0.5,0.5 0 1,0 1,0 a 0.5,0.5 0 1,0 -1,0  M-94.56 420.90999999999997 C -44.56 420.90999999999997, -42.05200000000001 40.09, -98.74 40.09 M -110.74 40.09 m -1, 0 a 1,1 0 1,0 2,0 a 1,1 0 1,0 -2,0 M -110.74 40.09 m -0.5, 0 a 0.5,0.5 0 1,0 1,0 a 0.5,0.5 0 1,0 -1,0  M-110.74 40.09 L-110.74 40.09 -98.74 40.09 M-104.74 46.09 L-104.74 46.09 -104.74 34.09" id="h2534431443" class="r"></path><path d="M 275.16 104.91 m -1, 0 a 1,1 0 1,0 2,0 a 1,1 0 1,0 -2,0 M 275.16 104.91 m -0.5, 0 a 0.5,0.5 0 1,0 1,0 a 0.5,0.5 0 1,0 -1,0  M275.16 104.91 L275.16 104.91 287.16 104.91 M 275.16 110.91 m -1, 0 a 1,1 0 1,0 2,0 a 1,1 0 1,0 -2,0 M 275.16 110.91 m -0.5, 0 a 0.5,0.5 0 1,0 1,0 a 0.5,0.5 0 1,0 -1,0  M275.16 110.91 L275.16 110.91 282.16 104.91 275.16 98.91 M 275.16 98.91 m -1, 0 a 1,1 0 1,0 2,0 a 1,1 0 1,0 -2,0 M 275.16 98.91 m -0.5, 0 a 0.5,0.5 0 1,0 1,0 a 0.5,0.5 0 1,0 -1,0  M287.16 104.91 C 348.15199999999993 104.91, 344.03 473, 294.03 473 M 282.03 473 m -1, 0 a 1,1 0 1,0 2,0 a 1,1 0 1,0 -2,0 M 282.03 473 m -0.5, 0 a 0.5,0.5 0 1,0 1,0 a 0.5,0.5 0 1,0 -1,0  M282.03 473 L282.03 473 294.03 473 M288.03 479 L288.03 479 288.03 467" id="h3562519400" class="r"></path><path d="M 144.45 129.91 m -1, 0 a 1,1 0 1,0 2,0 a 1,1 0 1,0 -2,0 M 144.45 129.91 m -0.5, 0 a 0.5,0.5 0 1,0 1,0 a 0.5,0.5 0 1,0 -1,0  M144.45 129.91 L144.45 129.91 132.45 129.91 M 144.45 135.91 m -1, 0 a 1,1 0 1,0 2,0 a 1,1 0 1,0 -2,0 M 144.45 135.91 m -0.5, 0 a 0.5,0.5 0 1,0 1,0 a 0.5,0.5 0 1,0 -1,0  M144.45 135.91 L144.45 135.91 137.45 129.91 144.45 123.91 M 144.45 123.91 m -1, 0 a 1,1 0 1,0 2,0 a 1,1 0 1,0 -2,0 M 144.45 123.91 m -0.5, 0 a 0.5,0.5 0 1,0 1,0 a 0.5,0.5 0 1,0 -1,0  M132.45 129.91 Q 74.65 129.91, 16.85 85 T -98.74 40.09 M -110.74 40.09 m -1, 0 a 1,1 0 1,0 2,0 a 1,1 0 1,0 -2,0 M -110.74 40.09 m -0.5, 0 a 0.5,0.5 0 1,0 1,0 a 0.5,0.5 0 1,0 -1,0  M-110.74 40.09 L-110.74 40.09 -98.74 40.09 M-104.74 46.09 L-104.74 46.09 -104.74 34.09" id="h506539308" class="r"></path><path d="M 144.45 154.91 m -1, 0 a 1,1 0 1,0 2,0 a 1,1 0 1,0 -2,0 M 144.45 154.91 m -0.5, 0 a 0.5,0.5 0 1,0 1,0 a 0.5,0.5 0 1,0 -1,0  M144.45 154.91 L144.45 154.91 132.45 154.91 M 144.45 160.91 m -1, 0 a 1,1 0 1,0 2,0 a 1,1 0 1,0 -2,0 M 144.45 160.91 m -0.5, 0 a 0.5,0.5 0 1,0 1,0 a 0.5,0.5 0 1,0 -1,0  M144.45 160.91 L144.45 160.91 137.45 154.91 144.45 148.91 M 144.45 148.91 m -1, 0 a 1,1 0 1,0 2,0 a 1,1 0 1,0 -2,0 M 144.45 148.91 m -0.5, 0 a 0.5,0.5 0 1,0 1,0 a 0.5,0.5 0 1,0 -1,0  M132.45 154.91 Q 74.65 154.91, 16.85 97.5 T -98.74 40.09 M -110.74 40.09 m -1, 0 a 1,1 0 1,0 2,0 a 1,1 0 1,0 -2,0 M -110.74 40.09 m -0.5, 0 a 0.5,0.5 0 1,0 1,0 a 0.5,0.5 0 1,0 -1,0  M-110.74 40.09 L-110.74 40.09 -98.74 40.09 M-104.74 46.09 L-104.74 46.09 -104.74 34.09" id="h233479016" class="r"></path><path d="M 144.45 229.91 m -1, 0 a 1,1 0 1,0 2,0 a 1,1 0 1,0 -2,0 M 144.45 229.91 m -0.5, 0 a 0.5,0.5 0 1,0 1,0 a 0.5,0.5 0 1,0 -1,0  M144.45 229.91 L144.45 229.91 132.45 229.91 M 144.45 235.91 m -1, 0 a 1,1 0 1,0 2,0 a 1,1 0 1,0 -2,0 M 144.45 235.91 m -0.5, 0 a 0.5,0.5 0 1,0 1,0 a 0.5,0.5 0 1,0 -1,0  M144.45 235.91 L144.45 235.91 137.45 229.91 144.45 223.91 M 144.45 223.91 m -1, 0 a 1,1 0 1,0 2,0 a 1,1 0 1,0 -2,0 M 144.45 223.91 m -0.5, 0 a 0.5,0.5 0 1,0 1,0 a 0.5,0.5 0 1,0 -1,0  M132.45 229.91 Q 73.18 229.91, 13.9 385.46 T -104.65 541 M -116.65 541 m -1, 0 a 1,1 0 1,0 2,0 a 1,1 0 1,0 -2,0 M -116.65 541 m -0.5, 0 a 0.5,0.5 0 1,0 1,0 a 0.5,0.5 0 1,0 -1,0  M-116.65 541 L-116.65 541 -104.65 541 M-110.65 547 L-110.65 547 -110.65 535" id="h3994914046" class="r"></path><path d="M 144.45 254.91 m -1, 0 a 1,1 0 1,0 2,0 a 1,1 0 1,0 -2,0 M 144.45 254.91 m -0.5, 0 a 0.5,0.5 0 1,0 1,0 a 0.5,0.5 0 1,0 -1,0  M144.45 254.91 L144.45 254.91 132.45 254.91 M 144.45 260.90999999999997 m -1, 0 a 1,1 0 1,0 2,0 a 1,1 0 1,0 -2,0 M 144.45 260.90999999999997 m -0.5, 0 a 0.5,0.5 0 1,0 1,0 a 0.5,0.5 0 1,0 -1,0  M144.45 260.90999999999997 L144.45 260.90999999999997 137.45 254.91 144.45 248.91 M 144.45 248.91 m -1, 0 a 1,1 0 1,0 2,0 a 1,1 0 1,0 -2,0 M 144.45 248.91 m -0.5, 0 a 0.5,0.5 0 1,0 1,0 a 0.5,0.5 0 1,0 -1,0  M132.45 254.91 Q 73.18 254.91, 13.9 397.96 T -104.65 541 M -116.65 541 m -1, 0 a 1,1 0 1,0 2,0 a 1,1 0 1,0 -2,0 M -116.65 541 m -0.5, 0 a 0.5,0.5 0 1,0 1,0 a 0.5,0.5 0 1,0 -1,0  M-116.65 541 L-116.65 541 -104.65 541 M-110.65 547 L-110.65 547 -110.65 535" id="h1889446349" class="r"></path><path d="M -115.96 214 m -1, 0 a 1,1 0 1,0 2,0 a 1,1 0 1,0 -2,0 M -115.96 214 m -0.5, 0 a 0.5,0.5 0 1,0 1,0 a 0.5,0.5 0 1,0 -1,0  M-115.96 214 L-115.96 214 -103.96 214 M -115.96 220 m -1, 0 a 1,1 0 1,0 2,0 a 1,1 0 1,0 -2,0 M -115.96 220 m -0.5, 0 a 0.5,0.5 0 1,0 1,0 a 0.5,0.5 0 1,0 -1,0  M-115.96 220 L-115.96 220 -108.96 214 -115.96 208 M -115.96 208 m -1, 0 a 1,1 0 1,0 2,0 a 1,1 0 1,0 -2,0 M -115.96 208 m -0.5, 0 a 0.5,0.5 0 1,0 1,0 a 0.5,0.5 0 1,0 -1,0  M-103.96 214 Q -44.86 214, 14.24 209.46 T 132.45 204.91 M 144.45 204.91 m -1, 0 a 1,1 0 1,0 2,0 a 1,1 0 1,0 -2,0 M 144.45 204.91 m -0.5, 0 a 0.5,0.5 0 1,0 1,0 a 0.5,0.5 0 1,0 -1,0  M144.45 204.91 L144.45 204.91 132.45 204.91 M138.45 210.91 L138.45 210.91 138.45 198.91" id="h2891317707" class="r"></path></g><g class="hrs"></g><g class="ts"><svg width="122.35" height="150" x="-233.09" y="-16.91" id="h3010508784" class="t"><rect height="40" width="122.35" class="th"></rect><text x="13" y="25" class="tht">Teams</text><rect height="110" width="122.35" class="t-bg"></rect><text x="13" y="61" class="tf pk">ID<tspan x="109.35" class="ty">int</tspan></text><path d="M7,14A2,2 0 0,1 5,12A2,2 0 0,1 7,10A2,2 0 0,1 9,12A2,2 0 0,1 7,14M12.65,10C11.83,7.67 9.61,6 7, 6A6, 6 0 0, 0 1, 12A6, 6 0 0, 0 7, 18C9.61, 18 11.83, 16.33 12.65, 14H17V18H21V14H23V10H12.65Z" class="i pk" transform="translate(76.676171875, 48) scale(0.65)"></path><text x="13" y="86" class="tf">Name<tspan x="109.35" class="ty">string</tspan></text><path d="M814.545 581.818v-23.273H535.273v-93.09h-46.546v93.09H209.455v139.637H256V605.09h232.727v93.09h46.546v-93.09H768v93.09h46.545V581.819zM674.91 465.455H349.091V139.636h325.818v325.819zM325.82 884.364H139.635V698.182h186.182v186.182z m279.272 0H418.909V698.182h186.182v186.182z m279.273 0H698.182V698.182h186.182v186.182zM395.636 418.909h232.728V186.182H395.636v232.727zM186.182 837.82h93.09v-93.092h-93.09v93.091z m279.273 0h93.09v-93.092h-93.09v93.091z m279.272 0h93.091v-93.092h-93.09v93.091z" class="i ix" transform="translate(65.00625, 75) scale(0.014)"></path><text x="13" y="111" class="tf">Location<tspan x="109.35" class="ty">string</tspan></text><text x="13" y="136" class="tf">Rank<tspan x="109.35" class="ty">int</tspan></text></svg><svg width="112.04" height="125" x="-228" y="157" id="h3133071897" class="t"><rect height="40" width="112.04" class="th"></rect><text x="13" y="25" class="tht">Season</text><rect height="85" width="112.04" class="t-bg"></rect><text x="13" y="61" class="tf pk">ID<tspan x="99.04" class="ty">int</tspan></text><path d="M7,14A2,2 0 0,1 5,12A2,2 0 0,1 7,10A2,2 0 0,1 9,12A2,2 0 0,1 7,14M12.65,10C11.83,7.67 9.61,6 7, 6A6, 6 0 0, 0 1, 12A6, 6 0 0, 0 7, 18C9.61, 18 11.83, 16.33 12.65, 14H17V18H21V14H23V10H12.65Z" class="i pk" transform="translate(66.366171875, 48) scale(0.65)"></path><text x="13" y="86" class="tf">start_date<tspan x="99.04" class="ty">int</tspan></text><text x="13" y="111" class="tf">end_date<tspan x="99.04" class="ty">int</tspan></text></svg><svg width="122.35" height="125" x="-228.91" y="313.90999999999997" id="h4103274130" class="t"><rect height="40" width="122.35" class="th"></rect><text x="13" y="25" class="tht">Players</text><rect height="85" width="122.35" class="t-bg"></rect><text x="13" y="61" class="tf pk">ID<tspan x="109.35" class="ty">int</tspan></text><path d="M7,14A2,2 0 0,1 5,12A2,2 0 0,1 7,10A2,2 0 0,1 9,12A2,2 0 0,1 7,14M12.65,10C11.83,7.67 9.61,6 7, 6A6, 6 0 0, 0 1, 12A6, 6 0 0, 0 7, 18C9.61, 18 11.83, 16.33 12.65, 14H17V18H21V14H23V10H12.65Z" class="i pk" transform="translate(76.676171875, 48) scale(0.65)"></path><text x="13" y="86" class="tf">Name<tspan x="109.35" class="ty">string</tspan></text><path d="M814.545 581.818v-23.273H535.273v-93.09h-46.546v93.09H209.455v139.637H256V605.09h232.727v93.09h46.546v-93.09H768v93.09h46.545V581.819zM674.91 465.455H349.091V139.636h325.818v325.819zM325.82 884.364H139.635V698.182h186.182v186.182z m279.272 0H418.909V698.182h186.182v186.182z m279.273 0H698.182V698.182h186.182v186.182zM395.636 418.909h232.728V186.182H395.636v232.727zM186.182 837.82h93.09v-93.092h-93.09v93.091z m279.273 0h93.09v-93.092h-93.09v93.091z m279.272 0h93.091v-93.092h-93.09v93.091z" class="i ix" transform="translate(65.00625, 75) scale(0.014)"></path><text x="13" y="111" class="tf fk">Team<tspan x="109.35" class="ty">string</tspan></text></svg><svg width="107.35" height="100" x="-224" y="484" id="h2653706718" class="t"><rect height="40" width="107.35" class="th"></rect><text x="13" y="25" class="tht">Referrees</text><rect height="60" width="107.35" class="t-bg"></rect><text x="13" y="61" class="tf pk">ID<tspan x="94.35" class="ty">int</tspan></text><path d="M7,14A2,2 0 0,1 5,12A2,2 0 0,1 7,10A2,2 0 0,1 9,12A2,2 0 0,1 7,14M12.65,10C11.83,7.67 9.61,6 7, 6A6, 6 0 0, 0 1, 12A6, 6 0 0, 0 7, 18C9.61, 18 11.83, 16.33 12.65, 14H17V18H21V14H23V10H12.65Z" class="i pk" transform="translate(61.676171874999994, 48) scale(0.65)"></path><text x="13" y="86" class="tf">Name<tspan x="94.35" class="ty">string</tspan></text></svg><svg width="110.03" height="125" x="172" y="391" id="h2207534861" class="t"><rect height="40" width="110.03" class="th"></rect><text x="13" y="25" class="tht">Goals</text><rect height="85" width="110.03" class="t-bg"></rect><text x="13" y="61" class="tf pk">ID<tspan x="97.03" class="ty">int</tspan></text><path d="M7,14A2,2 0 0,1 5,12A2,2 0 0,1 7,10A2,2 0 0,1 9,12A2,2 0 0,1 7,14M12.65,10C11.83,7.67 9.61,6 7, 6A6, 6 0 0, 0 1, 12A6, 6 0 0, 0 7, 18C9.61, 18 11.83, 16.33 12.65, 14H17V18H21V14H23V10H12.65Z" class="i pk" transform="translate(64.356171875, 48) scale(0.65)"></path><text x="13" y="86" class="tf fk">Match_ID<tspan x="97.03" class="ty">int</tspan></text><text x="13" y="111" class="tf fk">PlayerID<tspan x="97.03" class="ty">int</tspan></text></svg><svg width="130.71" height="225" x="144.45" y="47.91" id="h3829905542" class="t"><rect height="40" width="130.71" class="th"></rect><text x="13" y="25" class="tht">Matches</text><rect height="185" width="130.71" class="t-bg"></rect><text x="13" y="61" class="tf pk">MatchID<tspan x="117.71000000000001" class="ty">int</tspan></text><path d="M7,14A2,2 0 0,1 5,12A2,2 0 0,1 7,10A2,2 0 0,1 9,12A2,2 0 0,1 7,14M12.65,10C11.83,7.67 9.61,6 7, 6A6, 6 0 0, 0 1, 12A6, 6 0 0, 0 7, 18C9.61, 18 11.83, 16.33 12.65, 14H17V18H21V14H23V10H12.65Z" class="i pk" transform="translate(85.03617187500001, 48) scale(0.65)"></path><text x="13" y="86" class="tf fk">Team1_ID<tspan x="117.71000000000001" class="ty">int</tspan></text><text x="13" y="111" class="tf fk">Team2_ID<tspan x="117.71000000000001" class="ty">int</tspan></text><text x="13" y="136" class="tf">Date<tspan x="117.71000000000001" class="ty">int</tspan></text><text x="13" y="161" class="tf fk">Season_ID<tspan x="117.71000000000001" class="ty">int</tspan></text><text x="13" y="186" class="tf fk">Referree1_ID<tspan x="117.71000000000001" class="ty">int</tspan></text><text x="13" y="211" class="tf fk">Referree2_ID<tspan x="117.71000000000001" class="ty">int</tspan></text></svg></g></g><text class="qdbd-link" x="10" y="20">www.quickdatabasediagrams.com</text></svg>